<?xml version="1.0" encoding="utf-8"?>
<!-- Generator: Adobe Illustrator 23.0.1, SVG Export Plug-In . SVG Version: 6.00 Build 0)  -->
<svg version="1.1" id="Layer_1" xmlns="http://www.w3.org/2000/svg" xmlns:xlink="http://www.w3.org/1999/xlink" x="0px" y="0px"
	 viewBox="0 0 2120 550" style="enable-background:new 0 0 2120 550;" xml:space="preserve">
<style type="text/css">
	.st0{fill:#FFFFFF;}
</style>
<g>
	<path class="st0" d="M629.6,144.1h16.9c4.3,0,7.8,3.5,7.8,7.8v151.3c0,47.8,25.9,78,74.1,78c48.2,0,74.1-30.2,74.1-78V151.9
		c0-4.3,3.5-7.8,7.8-7.8h16.9c4.3,0,7.8,3.5,7.8,7.8v151.7c0,65.1-35.7,106.6-106.6,106.6S621.8,368.3,621.8,304V151.9
		C621.7,147.6,625.2,144.1,629.6,144.1z M884.8,350.2c2.5-3.2,7.3-3.5,10.2-0.7c17.5,17,43.7,31.7,76.9,31.7
		c46.6,0,61.5-25.1,61.5-45.1c0-31.4-31.7-40-66.2-49.4c-41.9-11-88.6-22.7-88.6-74.1c0-43.1,38.4-72.5,89.8-72.5
		c36.9,0,66.1,11.3,87.6,31.2c3.1,2.8,3.4,7.6,0.7,10.8l-10.2,12.5c-2.5,3.1-7.1,3.3-10,0.6c-19.1-17.9-44.3-26.1-70.5-26.1
		c-31.4,0-53.7,16.9-53.7,41.5c0,26.3,30.2,34.1,63.5,43.1c42.7,11.4,91.3,24.7,91.3,79.6c0,38-25.9,76.8-96.4,76.8
		c-42.2,0-74-14.9-95.6-36.5c-2.8-2.8-3.1-7.3-0.6-10.4L884.8,350.2z M1105.8,151.9c0-4.3,3.5-7.8,7.8-7.8h81.5
		c81.1,0,134.1,56.8,134.1,130.9c0,74.5-52.9,130.5-134.1,130.5h-81.5c-4.3,0-7.8-3.5-7.8-7.8V151.9z M1195.2,376.5
		c63.5,0,100.3-45.5,100.3-101.5c0-56.5-35.7-101.9-100.3-101.9h-56.8v203.4H1195.2z M1654.5,310.7c0-54.9,36.1-99.2,93.7-99.2
		s93.7,44.3,93.7,99.2s-36.1,99.6-93.7,99.6S1654.5,365.5,1654.5,310.7z M1810.9,310.7c0-38.4-22.3-72.9-62.7-72.9
		s-63.1,34.5-63.1,72.9c0,38.8,22.7,73.3,63.1,73.3S1810.9,349.5,1810.9,310.7z M1870.1,164.5c0-11,9-19.6,19.6-19.6
		c11,0,20,8.6,20,19.6s-9,20-20,20C1879.1,184.5,1870.1,175.4,1870.1,164.5z M1883,216.2h13.7c4.3,0,7.8,3.5,7.8,7.8v173.7
		c0,4.3-3.5,7.8-7.8,7.8H1883c-4.3,0-7.8-3.5-7.8-7.8V224C1875.2,219.7,1878.7,216.2,1883,216.2z M2073.9,281.7
		c0-33.3-16.9-43.9-42.3-43.9c-23.1,0-45.1,14.1-56.1,29.4v130.5c0,4.3-3.5,7.8-7.8,7.8H1954c-4.3,0-7.8-3.5-7.8-7.8V224
		c0-4.3,3.5-7.8,7.8-7.8h13.7c4.3,0,7.8,3.5,7.8,7.8v19.6c13.3-15.7,39.2-32.1,67.4-32.1c39.6,0,60.4,20,60.4,61.1v125
		c0,4.3-3.5,7.8-7.8,7.8h-13.7c-4.3,0-7.8-3.5-7.8-7.8L2073.9,281.7L2073.9,281.7z M1403.5,275c0-80.4,59.2-135.2,133.3-135.2
		c43.9,0,74.7,19.1,95.5,45.3c2.6,3.3,1.7,8.2-2,10.3l-14.6,8.1c-3.3,1.9-7.5,1-9.9-1.9c-15.5-19.2-40.6-32.7-69-32.7
		c-56.1,0-99.6,43.9-99.6,106.2c0,61.9,43.5,106.2,99.6,106.2c28.5,0,53.6-13.2,69-32.7c2.4-3,6.5-3.8,9.9-2l14.8,8.1
		c3.8,2.1,4.7,7.1,2,10.4c-21.6,26.4-51.8,45.2-95.7,45.2C1462.7,410.2,1403.5,355.4,1403.5,275z"/>
</g>
<g>
	<path class="st0" d="M275,20C134.2,20,20,134.2,20,275s114.2,255,255,255s255-114.2,255-255S415.8,20,275,20z M227.2,452.3
		c0,6-4.7,9.4-10.5,7.6c-77.1-24.6-133-96.9-133-182.2s55.9-157.6,133-182.2c5.8-1.8,10.5,1.6,10.5,7.6v14.8c0,4-3.1,8.7-6.9,10
		c-61,22.4-104.7,81-104.7,149.7s43.7,127.3,104.7,149.7c3.8,1.4,6.9,6,6.9,10V452.3z M291,397.2L291,397.2c-0.1,4.4-3.7,8-8.1,8
		H267c-4.4,0-8-3.6-8-8V372c-34.8-4.7-51.8-24.2-56.4-50.7c-0.8-4.5,2.8-8.6,7.4-8.6h18.2c3.8,0,7,2.7,7.8,6.5
		c3.4,15.8,12.5,27.9,40.4,27.9c20.6,0,35.2-11.5,35.2-28.7s-8.6-23.7-38.8-28.7c-44.6-6-65.7-19.5-65.7-54.5c0-27,20.4-48,52-52.5
		V158c0-4.4,3.6-8,8-8H283c4.4,0,8,3.6,8,8v25.4c25.7,4.6,42,19.2,47.3,43.4c1,4.6-2.6,8.9-7.3,8.9h-16.8c-3.6,0-6.6-2.4-7.7-5.9
		c-4.5-15.4-15.5-22-34.6-22c-21.1,0-32,10.2-32,24.5c0,15.1,6.2,22.7,38.6,27.4c43.8,6,66.4,18.5,66.4,55.8
		c0,28.3-21,51.2-53.9,56.5V397.2z M333.3,459.9c-5.8,1.8-10.5-1.6-10.5-7.6v-14.8c0-4.4,2.7-8.5,6.9-10
		c61-22.4,104.7-81,104.7-149.7s-43.7-127.3-104.7-149.7c-3.8-1.4-6.9-6-6.9-10v-14.8c0-6,4.7-9.5,10.5-7.6
		c77.1,24.6,133,96.9,133,182.2C466.2,363,410.4,435.2,333.3,459.9z"/>
</g>
</svg>
